<svg width="3680" height="1388" viewBox="0 0 3680 1388" fill="none" xmlns="http://www.w3.org/2000/svg">
<g clip-path="url(#clip0_1_2)">
<path d="M1963.97 374.993C1938.39 374.993 1918.38 385.512 1904.06 406.443C1889.64 427.469 1882.47 456.406 1882.47 493.336C1882.47 569.988 1911.68 608.319 1970.01 608.319C1987.6 608.319 2004.71 605.9 2021.27 600.976C2037.74 596.044 2054.39 590.181 2071.14 583.201V674.376C2037.83 689.168 2000.25 696.518 1958.29 696.518C1898.1 696.518 1852.05 679.027 1819.95 644.137C1787.85 609.25 1771.86 558.825 1771.86 492.867C1771.86 451.655 1779.58 415.376 1795.12 384.111C1810.65 352.854 1832.98 328.849 1862.19 312.014C1891.41 295.178 1925.64 286.801 1965.09 286.801C2008.16 286.801 2049.28 296.105 2088.54 314.807L2055.61 399.558C2040.9 392.578 2026.12 386.814 2011.41 382.067C1996.72 377.321 1980.9 374.993 1963.97 374.993V374.993ZM2148.82 690.935V292.388H2256.46V603.856H2409.87V690.931H2148.82V690.935ZM2846.56 491.194C2846.56 558.269 2830.18 609.25 2797.25 644.141C2764.42 679.027 2716.22 696.522 2652.77 696.522C2590.26 696.522 2542.35 678.94 2508.95 643.864C2475.64 608.792 2458.99 557.713 2458.99 490.732C2458.99 424.403 2475.55 373.695 2508.76 338.713C2541.88 303.736 2590.08 286.241 2653.33 286.241C2716.78 286.241 2764.78 303.637 2797.53 338.346C2830.28 373.044 2846.56 424.025 2846.56 491.194V491.194ZM2572.39 491.099C2572.39 568.129 2599.19 606.646 2652.77 606.646C2680.03 606.646 2700.31 597.251 2713.44 578.553C2726.65 559.847 2733.25 530.737 2733.25 491.099C2733.25 451.285 2726.56 421.89 2713.16 402.908C2699.85 383.926 2679.85 374.44 2653.33 374.44C2599.38 374.44 2572.39 413.324 2572.39 491.099ZM3257.29 292.388V532.311C3257.29 584.507 3242.6 624.973 3213.01 653.535C3183.52 682.192 3140.91 696.518 3085.28 696.518C3030.95 696.518 2989.17 682.65 2960.05 654.837C2930.84 627.025 2916.33 587.017 2916.33 534.821V292.384H3024.52V526.263C3024.52 554.359 3029.73 574.825 3040.34 587.565C3050.85 600.317 3066.39 606.642 3086.95 606.642C3109 606.642 3124.91 600.317 3134.86 587.668C3144.72 575.109 3149.65 554.359 3149.65 525.706V292.38H3257.28L3257.29 292.388ZM3679.2 483.196C3679.2 549.711 3660.87 600.976 3624.31 636.979C3587.65 672.979 3536.21 690.931 3469.88 690.931H3340.93V292.384H3478.9C3542.82 292.384 3592.22 308.755 3627.01 341.408C3661.81 374.153 3679.2 421.417 3679.2 483.193L3679.2 483.196ZM3567.46 487.197C3567.46 450.63 3560.21 423.563 3545.79 405.879C3531.37 388.297 3509.41 379.459 3479.92 379.459H3448.56V602.74H3472.57C3505.32 602.74 3529.32 593.247 3544.58 574.272C3559.83 555.29 3567.46 526.266 3567.46 487.197H3567.46Z" fill="#2B2A29"/>
<path d="M1981.73 1005.7C1981.73 1024.32 1977.04 1040.83 1967.59 1055.25C1958.15 1069.67 1944.57 1080.87 1926.79 1088.92C1909.02 1096.89 1888.17 1100.88 1864.3 1100.88C1844.36 1100.88 1827.56 1099.48 1814.05 1096.69C1800.55 1093.88 1786.48 1088.99 1771.85 1081.99V1009.77C1787.25 1017.67 1803.34 1023.83 1820 1028.31C1836.66 1032.72 1851.98 1034.96 1865.91 1034.96C1877.94 1034.96 1886.76 1032.86 1892.36 1028.73C1897.96 1024.6 1900.76 1019.21 1900.76 1012.71C1900.76 1008.58 1899.63 1005 1897.33 1001.92C1895.09 998.849 1891.45 995.768 1886.48 992.623C1881.52 989.47 1868.21 983.031 1846.59 973.304C1827.06 964.413 1812.44 955.809 1802.64 947.478C1792.92 939.151 1785.64 929.568 1780.95 918.784C1776.25 908.008 1773.88 895.203 1773.88 880.434C1773.88 852.867 1783.88 831.308 1803.97 815.846C1824.05 800.376 1851.7 792.681 1886.83 792.681C1917.83 792.681 1949.46 799.816 1981.72 814.165L1956.95 876.588C1928.89 863.783 1904.74 857.345 1884.38 857.345C1873.88 857.345 1866.18 859.234 1861.42 862.947C1856.59 866.656 1854.21 871.274 1854.21 876.732C1854.21 882.61 1857.29 887.928 1863.39 892.55C1869.47 897.164 1885.92 905.638 1912.86 917.951C1938.68 929.571 1956.6 942.092 1966.68 955.393C1976.68 968.762 1981.72 985.48 1981.72 1005.71L1981.73 1005.7ZM2206.16 1096.69H2028.13V796.883H2206.16V861.967H2109.1V908.996H2198.96V974.076H2109.1V1030.76H2206.16V1096.69ZM2339.54 987.513V1096.69H2258.57V796.883H2356.83C2438.29 796.883 2479.02 826.417 2479.02 885.407C2479.02 920.124 2462.09 946.994 2428.21 965.957L2515.55 1096.69H2423.74L2360.12 987.513H2339.55H2339.54ZM2339.54 926.63H2354.73C2383.07 926.63 2397.28 914.102 2397.28 889.121C2397.28 868.473 2383.35 858.189 2355.57 858.189H2339.54V926.634V926.63ZM2711.14 796.883H2801.77L2703.52 1096.69H2608.2L2510.37 796.883H2601.42L2642.21 948.811C2650.68 982.615 2655.37 1006.13 2656.21 1019.35C2657.12 1009.84 2659.08 997.869 2661.95 983.524C2664.82 969.106 2667.34 957.838 2669.51 949.651L2711.15 796.883H2711.14ZM2834.1 1096.69V796.883H2915.49V1096.69H2834.1ZM3113.74 859.026C3094.5 859.026 3079.45 866.933 3068.68 882.682C3057.83 898.496 3052.44 920.26 3052.44 948.046C3052.44 1005.71 3074.41 1034.54 3118.3 1034.54C3131.52 1034.54 3144.4 1032.72 3156.86 1029.02C3169.24 1025.31 3181.77 1020.9 3194.36 1015.65V1084.22C3169.31 1095.36 3141.04 1100.89 3109.48 1100.89C3064.2 1100.89 3029.56 1087.73 3005.41 1061.48C2981.27 1035.24 2969.23 997.312 2969.23 947.694C2969.23 916.691 2975.04 889.404 2986.73 865.884C2998.41 842.371 3015.21 824.317 3037.18 811.652C3059.16 798.983 3084.91 792.685 3114.58 792.685C3146.98 792.685 3177.91 799.68 3207.44 813.753L3182.67 877.504C3171.61 872.251 3160.49 867.917 3149.43 864.347C3138.38 860.774 3126.48 859.026 3113.74 859.026H3113.74ZM3430.83 1096.69H3252.8V796.883H3430.83V861.967H3333.77V908.996H3423.63V974.076H3333.77V1030.76H3430.83V1096.69V1096.69ZM3679.2 1005.7C3679.2 1024.32 3674.51 1040.83 3665.06 1055.25C3655.61 1069.67 3642.03 1080.87 3624.26 1088.92C3606.49 1096.89 3585.63 1100.88 3561.76 1100.88C3541.83 1100.88 3525.02 1099.48 3511.51 1096.69C3498.01 1093.88 3483.95 1088.99 3469.32 1081.99V1009.77C3484.71 1017.67 3500.81 1023.83 3517.46 1028.31C3534.12 1032.72 3549.45 1034.96 3563.37 1034.96C3575.41 1034.96 3584.23 1032.86 3589.82 1028.73C3595.43 1024.6 3598.22 1019.21 3598.22 1012.71C3598.22 1008.58 3597.1 1005 3594.79 1001.92C3592.55 998.849 3588.91 995.768 3583.94 992.623C3578.98 989.47 3565.67 983.031 3544.05 973.304C3524.53 964.413 3509.9 955.809 3500.1 947.478C3490.38 939.151 3483.1 929.568 3478.41 918.784C3473.72 908.008 3471.34 895.203 3471.34 880.434C3471.34 852.867 3481.35 831.308 3501.43 815.846C3521.51 800.376 3549.16 792.681 3584.29 792.681C3615.29 792.681 3646.92 799.816 3679.18 814.165L3654.41 876.588C3626.35 863.783 3602.2 857.345 3581.84 857.345C3571.34 857.345 3563.65 859.234 3558.89 862.947C3554.06 866.656 3551.68 871.274 3551.68 876.732C3551.68 882.61 3554.76 887.928 3560.85 892.55C3566.94 897.164 3583.38 905.638 3610.32 917.951C3636.15 929.571 3654.06 942.092 3664.14 955.393C3674.15 968.762 3679.18 985.48 3679.18 1005.71L3679.2 1005.7Z" fill="#2B2A29"/>
<path d="M622.849 1195.67C665.726 1238.22 713.903 1273.58 766.753 1302.04C819.937 1330.51 875.626 1351.77 933.822 1365.84C992.013 1379.92 1050.5 1387.13 1109.01 1387.13C1186.6 1386.82 1254.79 1375.55 1314.23 1353.34C1373.35 1331.43 1423.1 1301.09 1463.45 1262.31C1503.8 1223.51 1534.15 1179.09 1554.81 1129.03C1575.45 1078.66 1585.79 1025.17 1585.79 968.542C1585.45 915.669 1577 869.688 1560.44 829.964C1543.55 790.546 1521.34 756.447 1493.18 727.362C1465.03 698.255 1433.1 673.225 1398.08 651.964C1363.03 630.681 1326.74 612.236 1289.2 595.964C1251.67 579.692 1215.38 564.685 1180.33 550.608C1145.3 536.838 1113.4 522.765 1085.24 508.064C1057.09 493.677 1034.87 477.716 1017.98 459.892C1001.39 442.356 992.952 421.716 992.641 397.927C992.641 379.482 997.649 363.206 1007.65 348.819C1017.67 334.436 1032.99 323.172 1053.96 315.034C1075.22 306.586 1102.13 302.199 1135.28 302.199C1170.64 302.532 1206.31 307.831 1242.27 318.16C1278.25 328.804 1312.35 342.877 1344.89 360.704C1377.41 378.218 1406.53 398.26 1431.86 420.451L1570.76 152.046C1531.65 117.64 1489.41 89.1723 1443.43 66.6512C1397.45 44.1264 1349.9 27.5403 1300.15 16.5901C1250.71 5.32581 1200.67 0.00402069 1150.3 0.00402069C1079.61 0.314395 1014.54 10.0268 955.722 29.4252C896.596 48.8047 845.274 76.6475 801.799 112.628C757.995 148.609 724.52 191.774 700.439 242.145C676.654 292.513 664.458 348.823 664.148 411.076C664.458 463.332 672.907 509.309 689.799 549.041C706.382 588.459 728.596 622.861 756.749 652.282C784.906 681.681 816.811 707.332 851.856 729.232C886.883 751.136 923.174 770.535 960.711 787.738C998.262 804.627 1034.56 820.592 1069.58 834.983C1104.94 849.68 1136.54 864.692 1164.69 879.722C1192.85 894.73 1215.37 911.002 1231.96 928.826C1248.54 946.983 1256.98 967.622 1257.29 991.078C1257.29 1008.92 1251.97 1024.55 1241.64 1038.63C1231.33 1053.02 1215.99 1063.97 1195.35 1072.42C1174.69 1080.56 1149.04 1084.63 1118.38 1084.94C1078.03 1084.3 1037.99 1077.43 997.956 1063.66C958.228 1049.89 920.672 1032.38 885.956 1011.1C850.906 990.147 820.887 968.55 795.546 946.029L622.846 1195.68L622.849 1195.67Z" fill="#B03273"/>
<path d="M1008.61 809.017C1010.61 789.263 1011.65 768.979 1011.75 748.169C1011.42 680.284 1001.1 618.345 980.132 562.035C959.182 505.725 929.454 456.928 890.99 415.94C852.193 374.637 806.193 343.043 752.699 320.522C729.474 310.742 705.125 303.088 679.655 297.528C669.549 332.881 664.356 370.727 664.156 411.072C664.466 463.329 672.914 509.306 689.807 549.037C706.389 588.455 728.604 622.857 756.757 652.278C784.914 681.677 816.818 707.328 851.864 729.229C886.891 751.133 923.182 770.531 960.718 787.734C976.918 795.02 992.88 802.132 1008.61 809.021V809.017Z" fill="#4E263B"/>
<path d="M0 1364.6H328.478V949.78H557.478C622.861 949.466 682.301 937.895 735.795 915.052C789.289 892.217 835.278 859.991 874.067 818.385C912.546 776.776 942.27 727.662 963.228 671.037C984.186 614.413 994.511 552.156 994.825 484.271C994.511 416.383 984.186 354.44 963.228 298.13C942.266 241.82 912.546 193.019 874.067 152.034C835.278 110.74 789.289 79.1419 735.795 56.6208C682.301 34.096 622.861 22.8317 557.478 22.5213H0V1364.6H0ZM328.478 668.225V304.08H495.535C531.826 304.394 562.167 311.9 586.884 326.915C611.29 341.931 629.742 362.892 642.259 390.111C654.458 417.018 660.719 448.298 660.719 484.279C660.719 520.252 654.458 551.85 641.945 579.378C629.432 606.907 610.347 628.497 585.01 644.451C559.669 660.095 528.072 667.914 489.907 668.229H328.478V668.225Z" fill="#B03273"/>
<path d="M723.062 51.5148L722.673 52.3286C698.887 102.696 686.692 159.007 686.381 221.259C686.48 237.758 687.388 253.621 689.118 268.871C692.544 259.784 696.317 250.874 700.443 242.141C724.523 191.77 757.998 148.605 801.803 112.624C806.485 108.749 811.258 104.971 816.125 101.281C791.519 83.6726 764.755 68.8163 735.795 56.6208C731.59 54.8494 727.343 53.1462 723.062 51.5148V51.5148Z" fill="#4E263B"/>
</g>
<defs>
<clipPath id="clip0_1_2">
<rect width="3679.2" height="1387.13" fill="white"/>
</clipPath>
</defs>
</svg>
